<?xml version="1.0" encoding="UTF-8"?>
<!-- Generated by Pixelmator Pro 3.3.11 -->
<svg width="720" height="720" viewBox="0 0 720 720" xmlns="http://www.w3.org/2000/svg">
    <g id="g1">
        <g id="g2">
            <g id="g3">
                <path id="---" fill="#ffffff" fill-rule="evenodd" stroke="none" d="M 0 530 C -0 634.934082 85.065895 720 190 720 L 530 720 C 634.934082 720 720 634.934082 720 530 L 720 190 C 720 85.065918 634.934082 0 530 0 L 190 0 C 85.065895 0 0 85.065918 0 190 Z"/>
                <path id="path1" fill="#000000" stroke="none" d="M 104.140076 348.730743 C 142.113556 348.730743 172.094376 323.402985 175.431152 288.506073 L 175.431152 271.467407 C 128.315628 260.40097 105.434151 221.751251 104.05658 219.352295 C 102.3228 216.288269 99.294937 214.139832 95.816238 213.510864 C 91.446991 212.714996 84.726143 212.905609 77.447311 218.141724 C 61.951797 229.291687 48.415485 264.284607 37.550808 303.681549 L 54.233261 329.887299 C 66.321045 342.912964 81.769249 348.730743 104.140076 348.730743 Z"/>
                <path id="path2" fill="#000000" stroke="none" d="M 579.098022 384.35257 C 596.647339 384.35257 611.039368 375.601532 628.599915 354.192261 L 631.473267 349.027069 C 614.327454 344.099854 596.754456 341.321075 581.519165 338.945801 C 572.11554 337.484741 563.233765 336.108612 555.349609 334.409607 C 548.759583 332.984711 535.116089 327.379852 507.854218 310.910309 L 507.854218 313.380157 C 509.980438 351.556763 542.621765 384.35257 579.098022 384.35257 Z"/>
                <path id="path3" fill="#000000" stroke="none" d="M 654.118225 357.161682 L 648.845886 366.648773 C 648.513306 367.266602 648.120972 367.824585 647.682678 368.370026 C 632.661621 386.869781 611.288513 408.099579 579.098022 408.099579 C 529.738037 408.099579 487.253387 366.136719 484.16571 314.484985 L 485.543213 313.107422 C 499.43576 299.214905 499.43576 276.618683 485.543213 262.726105 C 471.650696 248.833618 449.067017 248.833618 435.174469 262.726105 L 435.127167 262.773438 C 429.380341 258.736755 423.704529 254.698669 418.028656 250.649475 C 422.326935 244.641083 424.736969 237.516693 424.736969 229.98877 C 424.736969 220.465485 421.032867 211.512726 414.312042 204.804443 C 400.84668 191.351624 377.383545 191.351624 363.930725 204.804443 L 360.261353 208.473755 C 342.735687 195.364624 327.892792 184.061584 318.358368 176.73407 C 306.78125 167.852295 290.264374 168.90979 279.946564 179.251282 L 255.55809 203.628601 C 243.672058 215.514587 243.672058 234.868683 255.55809 246.75473 L 262.195465 253.39209 C 263.858276 255.042358 263.691315 257.03775 263.536835 257.821167 C 263.335083 258.853668 262.740906 260.243744 261.090637 260.956177 C 237.698441 271.001282 217.09761 274.717896 199.132202 274.408997 L 199.132202 289.631775 C 194.548676 338.113739 154.617401 372.476318 104.140076 372.476318 C 74.88282 372.476318 52.571835 363.510986 35.947826 345.083649 C 35.508118 344.58551 35.104588 344.062286 34.748367 343.516846 L 29.535887 335.311279 C 19.027433 380.372955 13.200245 424.71344 9.647469 440.906494 C 6.784652 453.954803 709.694885 444.598633 709.711975 443.733978 L 709.711975 443.721436 L 709.711975 443.708954 L 709.711975 443.685272 L 709.711975 443.674164 C 709.688354 395.60965 684.88385 370.959564 654.118225 357.161682 Z M 426.767151 304.71405 L 451.964081 279.51712 C 456.59491 274.898804 464.122833 274.898804 468.753693 279.51712 C 473.384491 284.160492 473.384491 291.675873 468.753693 296.319214 L 468.183167 296.88974 L 468.171997 296.88974 L 443.569244 321.505035 C 439.080353 325.981415 431.256042 325.981415 426.779663 321.505035 C 424.535217 319.273071 423.300995 316.279999 423.300995 313.110229 C 423.299591 309.926514 424.522705 306.947357 426.767151 304.71405 Z M 355.523376 246.781158 L 380.720306 221.596771 C 385.196686 217.096741 393.022369 217.084198 397.52243 221.609283 C 399.754364 223.841248 400.98999 226.810669 400.98999 229.99295 C 400.98999 233.162781 399.755737 236.143311 397.511322 238.387787 L 391.764496 244.134583 L 372.326935 263.572144 C 370.711395 265.187653 368.717377 266.02951 366.651062 266.51651 C 363.303162 267.312469 359.799408 266.647339 356.925995 264.497498 C 356.475189 264.164917 355.940857 263.986816 355.537292 263.57077 C 350.90509 258.939941 350.90509 251.412018 355.523376 246.781158 Z M 247.434662 391.976471 L 270.826782 309.85556 C 272.631561 303.538239 279.21048 299.857758 285.502747 301.686188 C 291.807556 303.479797 295.464355 310.057312 293.672089 316.362122 L 281.026367 360.747498 L 345.667542 304.168579 C 349.63327 300.713531 355.41626 300.262695 359.845337 303.076263 C 364.298035 305.902344 366.351898 311.30545 364.915863 316.363495 L 341.227356 399.528046 C 339.731476 404.753052 334.980988 408.148285 329.804688 408.148285 C 328.736023 408.148285 327.631165 408.006348 326.551422 407.697418 C 320.246582 405.8927 316.589783 399.326294 318.382019 393.008972 L 331.063965 348.50528 L 267.324432 404.289673 C 265.93576 405.798096 264.178314 406.937683 262.171783 407.579163 C 258.395325 408.802277 254.251495 408.029999 251.141556 405.548981 C 248.398941 403.351837 246.73613 400.027588 246.652634 396.512726 C 246.627579 394.944489 246.887802 393.401398 247.434662 391.976471 Z"/>
                <path id="-" fill="#000000" fill-rule="evenodd" stroke="none" d="M 712.347656 540 L 694.472656 540 L 694.472656 503.589844 L 680.203125 540 L 661.515625 540 L 661.515625 472.613281 L 679.390625 472.613281 L 679.390625 508.71875 L 693.40625 472.613281 L 712.347656 472.613281 Z M 628.609375 472.613281 L 628.609375 498.816406 C 632.908875 498.816406 635.058594 496.531281 635.058594 491.960938 L 635.058594 480.535156 C 635.058594 475.930969 635.820313 473.290375 637.34375 472.613281 L 657.097656 472.613281 C 655.574219 474.813812 654.8125 478.063782 654.8125 482.363281 L 654.8125 491.757813 C 654.8125 495.041687 653.475281 497.766907 650.800781 499.933594 C 649.819031 500.746094 647.753906 501.897125 644.605469 503.386719 C 642.574219 504.3685 640.289063 504.893219 637.75 504.960938 C 638.934875 505.164063 641.152344 505.722656 644.402344 506.636719 C 651.410217 508.871094 654.914063 512.78125 654.914063 518.367188 L 654.914063 530.199219 C 654.914063 534.532593 655.675781 537.799438 657.199219 540 L 637.445313 540 C 635.921875 537.934875 635.160156 535.294312 635.160156 532.078125 L 635.160156 517.859375 C 635.160156 513.289063 632.976563 511.003906 628.609375 511.003906 L 628.609375 540 L 608.347656 540 L 608.347656 472.613281 Z M 602.40625 522.226563 C 602.40625 529.098999 600.908203 533.779297 597.912109 536.267578 C 594.916016 538.755859 588.407593 540 578.386719 540 L 554.875 540 L 554.875 472.613281 L 579.097656 472.613281 C 587.391968 472.613281 593.104797 473.984375 596.236328 476.726563 C 599.367859 479.46875 600.933594 484.157532 600.933594 490.792969 C 600.933594 498.410187 596.972717 502.743469 589.050781 503.792969 C 593.18103 504.470062 596.439453 506.086578 598.826172 508.642578 C 601.212891 511.198578 602.40625 514.40625 602.40625 518.265625 Z M 575.238281 497.648438 C 578.352905 497.648438 580.257141 497.259125 580.951172 496.480469 C 581.645203 495.701813 581.992188 494.161469 581.992188 491.859375 C 581.992188 489.929688 581.602844 488.592468 580.824219 487.847656 C 580.045593 487.102844 578.183594 486.730469 575.238281 486.730469 Z M 581.992188 519.078125 L 581.992188 516.792969 C 581.992188 513.88147 581.602844 512.06189 580.824219 511.333984 C 580.045593 510.60611 578.183594 510.242188 575.238281 510.242188 L 575.238281 525.832031 C 577.980469 525.832031 579.791687 525.434265 580.671875 524.638672 C 581.552063 523.843079 581.992188 521.989624 581.992188 519.078125 Z M 548.121094 496.277344 L 548.121094 512.78125 C 548.121094 518.841187 547.816406 523.284485 547.207031 526.111328 C 546.597656 528.938171 545.29425 531.578735 543.296875 534.033203 C 541.2995 536.487671 538.735046 538.298828 535.603516 539.466797 C 532.471985 540.634766 528.875 541.21875 524.8125 541.21875 C 520.276001 541.21875 516.433594 540.719421 513.285156 539.720703 C 510.136719 538.721985 507.690735 537.215515 505.947266 535.201172 C 504.203796 533.186829 502.959656 530.74939 502.214844 527.888672 C 501.470032 525.027954 501.097656 520.737 501.097656 515.015625 L 501.097656 497.75 C 501.097656 491.486938 501.774719 486.595062 503.128906 483.074219 C 504.483093 479.553375 506.920532 476.726563 510.441406 474.59375 C 513.96228 472.460938 518.464844 471.394531 523.949219 471.394531 C 528.553406 471.394531 532.505859 472.080078 535.806641 473.451172 C 539.107422 474.822266 541.654968 476.608063 543.449219 478.808594 C 545.243469 481.009125 546.470703 483.277344 547.130859 485.613281 C 547.791016 487.949219 548.121094 491.503876 548.121094 496.277344 Z M 527.605469 491.199219 C 527.605469 487.746094 527.41925 485.570984 527.046875 484.673828 C 526.6745 483.776672 525.878906 483.328125 524.660156 483.328125 C 523.441406 483.328125 522.628906 483.776672 522.222656 484.673828 C 521.816406 485.570984 521.613281 487.746094 521.613281 491.199219 L 521.613281 521.617188 C 521.613281 524.7995 521.816406 526.873047 522.222656 527.837891 C 522.628906 528.802734 523.4245 529.285156 524.609375 529.285156 C 525.828125 529.285156 526.632141 528.845093 527.021484 527.964844 C 527.410828 527.084595 527.605469 525.188843 527.605469 522.277344 Z M 495.613281 498.054688 L 476.265625 498.054688 L 476.265625 490.285156 C 476.265625 487.576813 476.045563 485.740234 475.605469 484.775391 C 475.165375 483.810547 474.352875 483.328125 473.167969 483.328125 C 471.983063 483.328125 471.1875 483.751282 470.78125 484.597656 C 470.375 485.444031 470.171875 487.339844 470.171875 490.285156 L 470.171875 522.074219 C 470.171875 524.477905 470.476563 526.280579 471.085938 527.482422 C 471.695313 528.684265 472.592438 529.285156 473.777344 529.285156 C 475.165375 529.285156 476.104828 528.658875 476.595703 527.40625 C 477.086578 526.153625 477.332031 523.783875 477.332031 520.296875 L 477.332031 512.273438 L 495.613281 512.273438 C 495.579407 517.65625 495.384766 521.693359 495.029297 524.384766 C 494.673828 527.076172 493.539734 529.835266 491.626953 532.662109 C 489.714172 535.488953 487.217468 537.621704 484.136719 539.060547 C 481.055969 540.49939 477.247406 541.21875 472.710938 541.21875 C 466.921844 541.21875 462.334656 540.228516 458.949219 538.248047 C 455.563782 536.267578 453.16864 533.491577 451.763672 529.919922 C 450.358704 526.348267 449.65625 521.278687 449.65625 514.710938 L 449.65625 495.566406 C 449.65625 489.845032 450.23175 485.528656 451.382813 482.617188 C 452.533875 479.705719 454.988251 477.107422 458.746094 474.822266 C 462.503937 472.537109 467.074188 471.394531 472.457031 471.394531 C 477.80603 471.394531 482.376282 472.528625 486.167969 474.796875 C 489.959656 477.065125 492.48175 479.925781 493.734375 483.378906 C 494.987 486.832031 495.613281 491.723938 495.613281 498.054688 Z M 444.171875 498.054688 L 424.824219 498.054688 L 424.824219 490.285156 C 424.824219 487.576813 424.604156 485.740234 424.164063 484.775391 C 423.723969 483.810547 422.911469 483.328125 421.726563 483.328125 C 420.541656 483.328125 419.746094 483.751282 419.339844 484.597656 C 418.933594 485.444031 418.730469 487.339844 418.730469 490.285156 L 418.730469 522.074219 C 418.730469 524.477905 419.035156 526.280579 419.644531 527.482422 C 420.253906 528.684265 421.151031 529.285156 422.335938 529.285156 C 423.723969 529.285156 424.663422 528.658875 425.154297 527.40625 C 425.645172 526.153625 425.890625 523.783875 425.890625 520.296875 L 425.890625 512.273438 L 444.171875 512.273438 C 444.138031 517.65625 443.943359 521.693359 443.587891 524.384766 C 443.232422 527.076172 442.098328 529.835266 440.185547 532.662109 C 438.272766 535.488953 435.776062 537.621704 432.695313 539.060547 C 429.614563 540.49939 425.806 541.21875 421.269531 541.21875 C 415.480438 541.21875 410.89325 540.228516 407.507813 538.248047 C 404.122375 536.267578 401.727234 533.491577 400.322266 529.919922 C 398.917297 526.348267 398.214844 521.278687 398.214844 514.710938 L 398.214844 495.566406 C 398.214844 489.845032 398.790344 485.528656 399.941406 482.617188 C 401.092468 479.705719 403.546844 477.107422 407.304688 474.822266 C 411.062531 472.537109 415.632782 471.394531 421.015625 471.394531 C 426.364624 471.394531 430.934875 472.528625 434.726563 474.796875 C 438.51825 477.065125 441.040344 479.925781 442.292969 483.378906 C 443.545593 486.832031 444.171875 491.723938 444.171875 498.054688 Z M 392.070313 496.277344 L 392.070313 512.78125 C 392.070313 518.841187 391.765625 523.284485 391.15625 526.111328 C 390.546875 528.938171 389.2435 531.578735 387.246094 534.033203 C 385.248688 536.487671 382.684265 538.298828 379.552734 539.466797 C 376.421204 540.634766 372.824249 541.21875 368.761719 541.21875 C 364.22525 541.21875 360.382843 540.719421 357.234375 539.720703 C 354.085907 538.721985 351.639984 537.215515 349.896484 535.201172 C 348.152985 533.186829 346.908844 530.74939 346.164063 527.888672 C 345.419281 525.027954 345.046875 520.737 345.046875 515.015625 L 345.046875 497.75 C 345.046875 491.486938 345.723938 486.595062 347.078125 483.074219 C 348.432312 479.553375 350.869781 476.726563 354.390625 474.59375 C 357.911469 472.460938 362.414032 471.394531 367.898438 471.394531 C 372.502625 471.394531 376.455048 472.080078 379.755859 473.451172 C 383.056671 474.822266 385.604156 476.608063 387.398438 478.808594 C 389.192719 481.009125 390.419922 483.277344 391.080078 485.613281 C 391.740234 487.949219 392.070313 491.503876 392.070313 496.277344 Z M 371.554688 491.199219 C 371.554688 487.746094 371.3685 485.570984 370.996094 484.673828 C 370.623688 483.776672 369.828125 483.328125 368.609375 483.328125 C 367.390625 483.328125 366.578125 483.776672 366.171875 484.673828 C 365.765625 485.570984 365.5625 487.746094 365.5625 491.199219 L 365.5625 521.617188 C 365.5625 524.7995 365.765625 526.873047 366.171875 527.837891 C 366.578125 528.802734 367.373688 529.285156 368.558594 529.285156 C 369.777344 529.285156 370.58139 528.845093 370.970703 527.964844 C 371.360016 527.084595 371.554688 525.188843 371.554688 522.277344 Z M 312.546875 472.613281 L 312.191406 478.554688 C 314.019531 476.151031 316.033844 474.356781 318.234375 473.171875 C 320.434906 471.986969 322.838531 471.394531 325.445313 471.394531 C 328.627625 471.394531 331.378235 472.249329 333.697266 473.958984 C 336.016296 475.66864 337.463531 477.640625 338.039063 479.875 C 338.614594 482.109375 338.902344 485.901001 338.902344 491.25 L 338.902344 519.636719 C 338.902344 525.764343 338.538422 530.123047 337.810547 532.712891 C 337.082672 535.302734 335.593109 537.367798 333.341797 538.908203 C 331.090485 540.448608 328.373718 541.21875 325.191406 541.21875 C 322.652344 541.21875 320.2995 540.626343 318.132813 539.441406 C 315.966125 538.25647 313.985687 536.496094 312.191406 534.160156 L 312.191406 549.597656 L 291.675781 549.597656 L 291.675781 472.613281 Z M 318.386719 492.214844 C 318.386719 488.050751 318.234375 485.528656 317.929688 484.648438 C 317.625 483.768219 316.778656 483.328125 315.390625 483.328125 C 314.036438 483.328125 313.164703 483.835938 312.775391 484.851563 C 312.386078 485.867188 312.191406 488.321594 312.191406 492.214844 L 312.191406 520.144531 C 312.191406 524.207031 312.394531 526.746094 312.800781 527.761719 C 313.207031 528.777344 314.087219 529.285156 315.441406 529.285156 C 316.761719 529.285156 317.582672 528.819702 317.904297 527.888672 C 318.225922 526.957642 318.386719 524.697937 318.386719 521.109375 Z M 258.769531 472.613281 L 258.769531 498.816406 C 263.069031 498.816406 265.21875 496.531281 265.21875 491.960938 L 265.21875 480.535156 C 265.21875 475.930969 265.980469 473.290375 267.503906 472.613281 L 287.257813 472.613281 C 285.734375 474.813812 284.972656 478.063782 284.972656 482.363281 L 284.972656 491.757813 C 284.972656 495.041687 283.635437 497.766907 280.960938 499.933594 C 279.979156 500.746094 277.914093 501.897125 274.765625 503.386719 C 272.734375 504.3685 270.449219 504.893219 267.910156 504.960938 C 269.095062 505.164063 271.312469 505.722656 274.5625 506.636719 C 281.570343 508.871094 285.074219 512.78125 285.074219 518.367188 L 285.074219 530.199219 C 285.074219 534.532593 285.835938 537.799438 287.359375 540 L 267.605469 540 C 266.082031 537.934875 265.320313 535.294312 265.320313 532.078125 L 265.320313 517.859375 C 265.320313 513.289063 263.136749 511.003906 258.769531 511.003906 L 258.769531 540 L 238.507813 540 L 238.507813 472.613281 Z M 212.863281 540 L 194.988281 540 L 194.988281 503.589844 L 180.71875 540 L 162.03125 540 L 162.03125 472.613281 L 179.90625 472.613281 L 179.90625 508.71875 L 193.921875 472.613281 L 212.863281 472.613281 Z M 155.277344 496.277344 L 155.277344 512.78125 C 155.277344 518.841187 154.972656 523.284485 154.363281 526.111328 C 153.753906 528.938171 152.450531 531.578735 150.453125 534.033203 C 148.455719 536.487671 145.891296 538.298828 142.759766 539.466797 C 139.628235 540.634766 136.031265 541.21875 131.96875 541.21875 C 127.432266 541.21875 123.589859 540.719421 120.441406 539.720703 C 117.292953 538.721985 114.847015 537.215515 113.103516 535.201172 C 111.360016 533.186829 110.115891 530.74939 109.371094 527.888672 C 108.626297 525.027954 108.253906 520.737 108.253906 515.015625 L 108.253906 497.75 C 108.253906 491.486938 108.930984 486.595062 110.285156 483.074219 C 111.639328 479.553375 114.076813 476.726563 117.597656 474.59375 C 121.1185 472.460938 125.621063 471.394531 131.105469 471.394531 C 135.709656 471.394531 139.662094 472.080078 142.962891 473.451172 C 146.263687 474.822266 148.811188 476.608063 150.605469 478.808594 C 152.39975 481.009125 153.626953 483.277344 154.287109 485.613281 C 154.947266 487.949219 155.277344 491.503876 155.277344 496.277344 Z M 134.761719 491.199219 C 134.761719 487.746094 134.575516 485.570984 134.203125 484.673828 C 133.830734 483.776672 133.035156 483.328125 131.816406 483.328125 C 130.597656 483.328125 129.785156 483.776672 129.378906 484.673828 C 128.972656 485.570984 128.769531 487.746094 128.769531 491.199219 L 128.769531 521.617188 C 128.769531 524.7995 128.972656 526.873047 129.378906 527.837891 C 129.785156 528.802734 130.580719 529.285156 131.765625 529.285156 C 132.984375 529.285156 133.788406 528.845093 134.177734 527.964844 C 134.567062 527.084595 134.761719 525.188843 134.761719 522.277344 Z M 102.921875 522.226563 C 102.921875 529.098999 101.423843 533.779297 98.427734 536.267578 C 95.431625 538.755859 88.923225 540 78.902344 540 L 55.390625 540 L 55.390625 472.613281 L 79.613281 472.613281 C 87.907593 472.613281 93.62043 473.984375 96.751953 476.726563 C 99.883484 479.46875 101.449219 484.157532 101.449219 490.792969 C 101.449219 498.410187 97.488327 502.743469 89.566406 503.792969 C 93.696632 504.470062 96.955063 506.086578 99.341797 508.642578 C 101.728531 511.198578 102.921875 514.40625 102.921875 518.265625 Z M 75.753906 497.648438 C 78.868507 497.648438 80.772781 497.259125 81.466797 496.480469 C 82.160812 495.701813 82.507813 494.161469 82.507813 491.859375 C 82.507813 489.929688 82.118492 488.592468 81.339844 487.847656 C 80.561195 487.102844 78.699234 486.730469 75.753906 486.730469 Z M 82.507813 519.078125 L 82.507813 516.792969 C 82.507813 513.88147 82.118492 512.06189 81.339844 511.333984 C 80.561195 510.60611 78.699234 510.242188 75.753906 510.242188 L 75.753906 525.832031 C 78.496109 525.832031 80.307289 525.434265 81.1875 524.638672 C 82.067711 523.843079 82.507813 521.989624 82.507813 519.078125 Z M 51.277344 472.613281 L 51.277344 486.730469 L 39.546875 486.730469 L 39.546875 540 L 19.082031 540 L 19.082031 486.730469 L 7.300781 486.730469 L 7.300781 472.613281 Z"/>
            </g>
        </g>
    </g>
</svg>
