<?xml version="1.0" encoding="UTF-8"?>
<!-- Generated by Pixelmator Pro 3.3.11 -->
<svg width="594" height="326" viewBox="0 0 594 326" xmlns="http://www.w3.org/2000/svg">
    <g id="g1">
        <path id="path1" fill="#000000" stroke="none" d="M 0.5 295.900024 L 11.5 294.900024 C 12 299.299988 13.199997 303 15.100006 305.799988 C 17 308.599976 20 310.900024 24 312.700012 C 28 314.400024 32.5 315.299988 37.5 315.299988 C 42 315.299988 45.899994 314.599976 49.299988 313.299988 C 52.700012 312 55.200012 310.200012 56.899994 307.799988 C 58.600006 305.5 59.399994 303 59.399994 300.200012 C 59.399994 297.400024 58.600006 295 57 292.900024 C 55.399994 290.799988 52.700012 289.099976 49.100006 287.700012 C 46.700012 286.799988 41.5 285.299988 33.399994 283.400024 C 25.300003 281.400024 19.600006 279.599976 16.399994 277.900024 C 12.199997 275.700012 9 272.900024 7 269.700012 C 4.899994 266.400024 3.899994 262.799988 3.899994 258.700012 C 3.899994 254.200012 5.199997 250.099976 7.699997 246.200012 C 10.199997 242.299988 13.899994 239.400024 18.800003 237.400024 C 23.699997 235.400024 29 234.400024 35 234.400024 C 41.5 234.400024 47.299988 235.5 52.299988 237.599976 C 57.299988 239.700012 61.100006 242.799988 63.799988 246.900024 C 66.5 251 67.899994 255.599976 68.100006 260.799988 L 56.899994 261.599976 C 56.299988 256 54.299988 251.799988 50.799988 248.900024 C 47.299988 246 42.200012 244.599976 35.399994 244.599976 C 28.300003 244.599976 23.199997 245.900024 20 248.5 C 16.800003 251.099976 15.199997 254.200012 15.199997 257.900024 C 15.199997 261.099976 16.300003 263.700012 18.600006 265.700012 C 20.800003 267.799988 26.699997 269.900024 36.199997 272 C 45.700012 274.200012 52.200012 276 55.700012 277.599976 C 60.799988 280 64.600006 283 67.100006 286.599976 C 69.5 290.200012 70.799988 294.400024 70.799988 299.200012 C 70.799988 303.900024 69.5 308.299988 66.799988 312.5 C 64.100006 316.700012 60.299988 319.900024 55.200012 322.200012 C 50.200012 324.5 44.5 325.700012 38.199997 325.700012 C 30.199997 325.700012 23.5 324.5 18.100006 322.200012 C 12.699997 319.900024 8.5 316.400024 5.399994 311.700012 C 2.300003 307.099976 0.699997 301.799988 0.5 295.900024 Z"/>
        <path id="path2" fill="#000000" stroke="none" d="M 116.899994 313.900024 L 116.899994 235.900024 L 105.200012 235.900024 L 105.200012 324.400024 L 160.299988 324.400024 L 160.299988 314 L 116.899994 314 Z"/>
        <path id="path3" fill="#000000" stroke="none" d="M 210.600006 252.900024 C 216.600006 247.200012 223.700012 244.400024 231.899994 244.400024 C 237.700012 244.400024 243 245.900024 247.600006 248.799988 C 252.299988 251.799988 255.799988 255.900024 258.200012 261.299988 C 259.899994 265.099976 261 269.299988 261.5 273.900024 L 273.600006 273.900024 C 273 267.5 271.299988 261.700012 268.700012 256.400024 C 265.299988 249.400024 260.299988 244 253.799988 240.099976 C 247.299988 236.200012 239.899994 234.299988 231.799988 234.299988 C 219.399994 234.299988 209.200012 238.400024 201.299988 246.799988 C 194.799988 253.700012 191 262.700012 189.899994 274 L 201.899994 274 C 203 264.5 205.899994 257.5 210.600006 252.900024 Z M 253.5 306.599976 C 247.799988 312.799988 240.600006 315.900024 231.799988 315.900024 C 223.200012 315.900024 216 312.799988 210.299988 306.700012 C 205.5 301.5 202.700012 294.700012 201.899994 286.400024 L 189.899994 286.400024 C 190.5 292.299988 192.100006 298 194.700012 303.5 C 198.100006 310.5 203 316 209.600006 320 C 216.100006 324 223.600006 326 231.899994 326 C 239.5 326 246.700012 324.200012 253.299988 320.5 C 259.899994 316.900024 265 311.5 268.600006 304.400024 C 271.399994 298.900024 273.100006 293 273.700012 286.400024 L 261.700012 286.400024 C 260.799988 294.799988 258.100006 301.5 253.5 306.599976 Z"/>
        <path id="path4" fill="#000000" stroke="none" d="M 349.299988 279.299988 L 349.299988 289.700012 L 375.200012 289.700012 L 375.200012 306.200012 C 372.700012 308.400024 369.099976 310.5 364.200012 312.400024 C 359.400024 314.299988 354.400024 315.299988 349.400024 315.299988 C 343.599976 315.299988 338.099976 314 332.900024 311.400024 C 327.700012 308.799988 323.799988 304.900024 321.099976 299.599976 C 318.400024 294.299988 317.099976 287.700012 317.099976 279.799988 C 317.099976 273.400024 318.200012 267.5 320.5 262 C 321.799988 258.799988 323.700012 255.900024 326.099976 253.200012 C 328.5 250.599976 331.599976 248.400024 335.5 246.799988 C 339.400024 245.200012 344 244.299988 349.299988 244.299988 C 353.799988 244.299988 357.799988 245.099976 361.5 246.599976 C 365.200012 248.099976 368 250.200012 369.900024 252.799988 C 371.900024 255.400024 373.5 258.900024 374.799988 263.400024 L 385.299988 260.5 C 383.799988 254.5 381.599976 249.700012 378.599976 246 C 375.700012 242.299988 371.599976 239.400024 366.5 237.299988 C 361.299988 235.200012 355.599976 234.200012 349.200012 234.200012 C 340.400024 234.200012 332.700012 236 325.900024 239.599976 C 319.200012 243.200012 314 248.700012 310.400024 256.200012 C 306.799988 263.700012 305 271.700012 305 280.299988 C 305 289 306.799988 296.900024 310.400024 303.900024 C 314 310.900024 319.400024 316.299988 326.400024 320 C 333.5 323.700012 341.400024 325.599976 350 325.599976 C 356.400024 325.599976 362.700012 324.400024 368.799988 322.099976 C 374.900024 319.799988 380.799988 316.299988 386.599976 311.700012 L 386.599976 278.900024 L 349.299988 279.299988 Z"/>
        <path id="path5" fill="#000000" stroke="none" d="M 495.799988 324.400024 L 482.5 324.400024 L 472.200012 297.599976 L 447.099976 235.900024 L 459.700012 235.900024 Z"/>
        <path id="path6" fill="#000000" stroke="none" d="M 424 324.400024 L 410.700012 324.400024 L 442.299988 247 L 448.900024 263.599976 L 424 324.400024 Z"/>
        <path id="path7" fill="#000000" stroke="none" d="M 582.299988 235.900024 L 582.299988 305.400024 L 536 235.900024 L 524 235.900024 L 524 238.400024 L 535.200012 255.099976 L 535.200012 254.900024 L 541 263.599976 L 545.700012 270.700012 L 553.799988 282.900024 L 581.5 324.400024 L 593.5 324.400024 L 593.5 235.900024 L 582.299988 235.900024 Z M 524 324.400024 L 535.200012 324.400024 L 535.200012 272.599976 L 524 255.900024 L 524 324.400024 Z"/>
        <path id="path8" fill="#000000" stroke="none" d="M 524 238.400024 L 535.200012 255.099976 L 553.799988 282.799988"/>
        <g id="g2">
            <path id="path9" fill="#000000" stroke="none" d="M 235.299988 107.400024 L 245.200012 106.5 C 245.700012 110.5 246.799988 113.700012 248.5 116.299988 C 250.200012 118.799988 252.899994 120.900024 256.5 122.5 C 260.100006 124.099976 264.200012 124.900024 268.700012 124.900024 C 272.700012 124.900024 276.200012 124.299988 279.299988 123.099976 C 282.399994 121.900024 284.600006 120.299988 286.100006 118.200012 C 287.600006 116.099976 288.299988 113.900024 288.299988 111.400024 C 288.299988 108.900024 287.600006 106.700012 286.100006 104.900024 C 284.700012 103 282.299988 101.5 279 100.200012 C 276.899994 99.400024 272.200012 98.099976 264.899994 96.299988 C 257.600006 94.5 252.5 92.900024 249.600006 91.299988 C 245.799988 89.299988 243 86.799988 241.100006 83.900024 C 239.200012 81 238.299988 77.700012 238.299988 74 C 238.299988 70 239.399994 66.200012 241.700012 62.700012 C 244 59.200012 247.299988 56.599976 251.600006 54.799988 C 256 53 260.799988 52.099976 266.100006 52.099976 C 272 52.099976 277.200012 53 281.600006 54.900024 C 286 56.799988 289.5 59.599976 292 63.299988 C 294.399994 67 295.700012 71.200012 295.899994 75.799988 L 285.799988 76.599976 C 285.299988 71.599976 283.399994 67.799988 280.299988 65.200012 C 277.200012 62.599976 272.600006 61.400024 266.5 61.400024 C 260.200012 61.400024 255.5 62.599976 252.600006 64.900024 C 249.700012 67.200012 248.200012 70 248.200012 73.299988 C 248.200012 76.200012 249.200012 78.5 251.299988 80.299988 C 253.299988 82.099976 258.600006 84 267.100006 86 C 275.600006 87.900024 281.5 89.599976 284.600006 91.099976 C 289.200012 93.200012 292.600006 95.900024 294.799988 99.200012 C 297 102.5 298.099976 106.200012 298.099976 110.5 C 298.099976 114.700012 296.899994 118.700012 294.5 122.5 C 292.100006 126.200012 288.600006 129.200012 284.100006 131.200012 C 279.600006 133.299988 274.5 134.299988 268.799988 134.299988 C 261.600006 134.299988 255.600006 133.299988 250.799988 131.200012 C 246 129.099976 242.100006 126 239.399994 121.700012 C 236.899994 117.400024 235.5 112.700012 235.299988 107.400024 Z"/>
            <path id="path10" fill="#000000" stroke="none" d="M 319.599976 123.5 L 319.599976 53.400024 L 309.099976 53.400024 L 309.099976 132.900024 L 358.599976 132.900024 L 358.599976 123.5 L 319.599976 123.5 Z"/>
        </g>
        <path id="path11" fill="#000000" stroke="none" d="M 297 187.200012 C 245.399994 187.200012 203.5 145.200012 203.5 93.700012 C 203.5 42.099976 245.5 0.200012 297 0.200012 C 348.599976 0.200012 390.5 42.200012 390.5 93.700012 C 390.5 145.299988 348.599976 187.200012 297 187.200012 Z M 297 12.299988 C 252.100006 12.299988 215.700012 48.799988 215.700012 93.599976 C 215.700012 138.5 252.200012 174.900024 297 174.900024 C 341.799988 174.900024 378.299988 138.400024 378.299988 93.599976 C 378.299988 48.799988 341.900024 12.299988 297 12.299988 Z"/>
    </g>
</svg>
