<?xml version="1.0" encoding="UTF-8"?>
<!-- Generated by Pixelmator Pro 3.3.11 -->
<svg width="706" height="380" viewBox="0 0 706 380" xmlns="http://www.w3.org/2000/svg">
    <g id="g1">
        <g id="g2">
            <g id="g3">
                <path id="path1" fill="#8c8c8c" stroke="none" d="M 97.140076 178.730728 C 135.113556 178.730728 165.094376 153.402985 168.431152 118.506073 L 168.431152 101.467407 C 121.315636 90.40097 98.434151 51.751251 97.05658 49.352295 C 95.3228 46.288269 92.294937 44.139832 88.816238 43.510864 C 84.446991 42.714996 77.726143 42.905609 70.447311 48.141724 C 54.951797 59.291687 41.415485 94.284607 30.55081 133.681549 L 47.233261 159.887283 C 59.321045 172.912949 74.769249 178.730728 97.140076 178.730728 Z"/>
                <path id="path2" fill="#8c8c8c" stroke="none" d="M 572.098022 214.35257 C 589.647339 214.35257 604.039368 205.601532 621.599915 184.192276 L 624.473267 179.027069 C 607.327454 174.099869 589.754456 171.32106 574.519165 168.945816 C 565.11554 167.484756 556.233765 166.108597 548.349609 164.409607 C 541.759583 162.984726 528.116089 157.379852 500.854218 140.910294 L 500.854218 143.380142 C 502.980438 181.556778 535.621765 214.35257 572.098022 214.35257 Z"/>
                <path id="path3" fill="#8c8c8c" stroke="none" d="M 647.118225 187.161667 L 641.845886 196.648788 C 641.513306 197.266602 641.120972 197.824585 640.682678 198.370041 C 625.661621 216.869766 604.288513 238.099579 572.098022 238.099579 C 522.738037 238.099579 480.253387 196.136734 477.16571 144.485001 L 478.543213 143.107422 C 492.43576 129.21492 492.43576 106.618683 478.543213 92.726105 C 464.650696 78.833618 442.067017 78.833618 428.174469 92.726105 L 428.127167 92.773438 C 422.380341 88.736755 416.704529 84.698669 411.028656 80.649475 C 415.326935 74.641083 417.736969 67.516693 417.736969 59.98877 C 417.736969 50.465485 414.032867 41.512726 407.312042 34.804413 C 393.84668 21.351593 370.383545 21.351593 356.930725 34.804413 L 353.261353 38.473755 C 335.735687 25.364624 320.892792 14.061584 311.358368 6.73407 C 299.78125 -2.147705 283.264374 -1.09024 272.946564 9.251251 L 248.55809 33.628601 C 236.672058 45.514587 236.672058 64.868683 248.55809 76.75473 L 255.195465 83.39209 C 256.858276 85.042358 256.691315 87.03775 256.536835 87.821167 C 256.335083 88.853668 255.740921 90.243744 254.090622 90.956177 C 230.698441 101.001282 210.09761 104.717896 192.132202 104.408997 L 192.132202 119.631775 C 187.548676 168.113724 147.617401 202.476318 97.140076 202.476318 C 67.88282 202.476318 45.571835 193.510986 28.947824 175.083633 C 28.50812 174.58551 28.104589 174.062286 27.748367 173.51683 L 22.535887 165.311279 C 12.027433 210.372955 6.200244 254.71344 2.647468 270.906494 C -0.215348 283.954773 702.694885 274.598633 702.711975 273.733978 L 702.711975 273.721436 L 702.711975 273.708954 L 702.711975 273.685272 L 702.711975 273.674164 C 702.688354 225.609665 677.88385 200.959579 647.118225 187.161667 Z M 419.767151 134.71405 L 444.964081 109.51712 C 449.59491 104.898804 457.122833 104.898804 461.753693 109.51712 C 466.384491 114.160492 466.384491 121.675873 461.753693 126.319214 L 461.183167 126.889725 L 461.171997 126.889725 L 436.569244 151.50502 C 432.080353 155.981415 424.256042 155.981415 419.779663 151.50502 C 417.535217 149.273087 416.300995 146.280014 416.300995 143.110229 C 416.299591 139.926498 417.522705 136.947342 419.767151 134.71405 Z M 348.523376 76.781158 L 373.720306 51.596771 C 378.196686 47.096741 386.022369 47.084198 390.52243 51.609283 C 392.754364 53.841248 393.98999 56.810669 393.98999 59.99295 C 393.98999 63.162781 392.755737 66.143311 390.511322 68.387787 L 384.764496 74.134583 L 365.326935 93.572144 C 363.711395 95.187653 361.717377 96.02951 359.651062 96.51651 C 356.303162 97.312469 352.799408 96.647339 349.925995 94.497498 C 349.475189 94.164917 348.940857 93.986816 348.537292 93.57077 C 343.90509 88.939941 343.90509 81.412018 348.523376 76.781158 Z M 240.434662 221.976486 L 263.826782 139.855576 C 265.631561 133.538239 272.21048 129.857773 278.502747 131.686188 C 284.807556 133.479813 288.464355 140.057312 286.672089 146.362106 L 274.026367 190.747513 L 338.667542 134.168564 C 342.63327 130.713531 348.41626 130.262695 352.845337 133.076248 C 357.298035 135.902344 359.351898 141.305466 357.915863 146.363495 L 334.227356 229.528046 C 332.731476 234.753067 327.980988 238.14827 322.804688 238.14827 C 321.736023 238.14827 320.631165 238.006363 319.551422 237.697433 C 313.246582 235.892685 309.589783 229.326309 311.382019 223.008972 L 324.063965 178.50528 L 260.324432 234.289688 C 258.93576 235.79808 257.178314 236.937683 255.171799 237.579163 C 251.39534 238.802277 247.251495 238.029999 244.141556 235.548981 C 241.398941 233.351852 239.73613 230.027588 239.652634 226.512711 C 239.627579 224.944489 239.887802 223.401398 240.434662 221.976486 Z"/>
                <path id="-" fill="#8c8c8c" fill-rule="evenodd" stroke="none" d="M 705.347656 370 L 687.472656 370 L 687.472656 333.589844 L 673.203125 370 L 654.515625 370 L 654.515625 302.613281 L 672.390625 302.613281 L 672.390625 338.71875 L 686.40625 302.613281 L 705.347656 302.613281 Z M 621.609375 302.613281 L 621.609375 328.816406 C 625.908875 328.816406 628.058594 326.531281 628.058594 321.960938 L 628.058594 310.535156 C 628.058594 305.930969 628.820313 303.290375 630.34375 302.613281 L 650.097656 302.613281 C 648.574219 304.813812 647.8125 308.063782 647.8125 312.363281 L 647.8125 321.757813 C 647.8125 325.041687 646.475281 327.766907 643.800781 329.933594 C 642.819031 330.746094 640.753906 331.897125 637.605469 333.386719 C 635.574219 334.3685 633.289063 334.893219 630.75 334.960938 C 631.934875 335.164063 634.152344 335.722656 637.402344 336.636719 C 644.410217 338.871094 647.914063 342.781219 647.914063 348.367188 L 647.914063 360.199219 C 647.914063 364.532562 648.675781 367.799469 650.199219 370 L 630.445313 370 C 628.921875 367.934875 628.160156 365.294281 628.160156 362.078125 L 628.160156 347.859375 C 628.160156 343.289032 625.976563 341.003906 621.609375 341.003906 L 621.609375 370 L 601.347656 370 L 601.347656 302.613281 Z M 595.40625 352.226563 C 595.40625 359.098999 593.908203 363.779297 590.912109 366.267578 C 587.916016 368.755859 581.407593 370 571.386719 370 L 547.875 370 L 547.875 302.613281 L 572.097656 302.613281 C 580.391968 302.613281 586.104797 303.984375 589.236328 306.726563 C 592.367859 309.46875 593.933594 314.157532 593.933594 320.792969 C 593.933594 328.410187 589.972717 332.743469 582.050781 333.792969 C 586.18103 334.470062 589.439453 336.086578 591.826172 338.642578 C 594.212891 341.198578 595.40625 344.406219 595.40625 348.265625 Z M 568.238281 327.648438 C 571.352905 327.648438 573.257141 327.259125 573.951172 326.480469 C 574.645203 325.701813 574.992188 324.161469 574.992188 321.859375 C 574.992188 319.929688 574.602844 318.592468 573.824219 317.847656 C 573.045593 317.102844 571.183594 316.730469 568.238281 316.730469 Z M 574.992188 349.078125 L 574.992188 346.792969 C 574.992188 343.8815 574.602844 342.061859 573.824219 341.333984 C 573.045593 340.60611 571.183594 340.242188 568.238281 340.242188 L 568.238281 355.832031 C 570.980469 355.832031 572.791687 355.434265 573.671875 354.638672 C 574.552063 353.843079 574.992188 351.989594 574.992188 349.078125 Z M 541.121094 326.277344 L 541.121094 342.78125 C 541.121094 348.841187 540.816406 353.284485 540.207031 356.111328 C 539.597656 358.938171 538.29425 361.578766 536.296875 364.033203 C 534.2995 366.48764 531.735046 368.298828 528.603516 369.466797 C 525.471985 370.634766 521.875 371.21875 517.8125 371.21875 C 513.276001 371.21875 509.433594 370.719421 506.285156 369.720703 C 503.136719 368.721985 500.690735 367.215515 498.947266 365.201172 C 497.203796 363.186829 495.959656 360.749359 495.214844 357.888672 C 494.470032 355.027985 494.097656 350.737 494.097656 345.015625 L 494.097656 327.75 C 494.097656 321.486938 494.774719 316.595062 496.128906 313.074219 C 497.483093 309.553375 499.920532 306.726563 503.441406 304.59375 C 506.96228 302.460938 511.464844 301.394531 516.949219 301.394531 C 521.553406 301.394531 525.505859 302.080078 528.806641 303.451172 C 532.107422 304.822266 534.654968 306.608063 536.449219 308.808594 C 538.243469 311.009125 539.470703 313.277344 540.130859 315.613281 C 540.791016 317.949219 541.121094 321.503876 541.121094 326.277344 Z M 520.605469 321.199219 C 520.605469 317.746094 520.41925 315.570984 520.046875 314.673828 C 519.6745 313.776672 518.878906 313.328125 517.660156 313.328125 C 516.441406 313.328125 515.628906 313.776672 515.222656 314.673828 C 514.816406 315.570984 514.613281 317.746094 514.613281 321.199219 L 514.613281 351.617188 C 514.613281 354.7995 514.816406 356.873047 515.222656 357.837891 C 515.628906 358.802734 516.4245 359.285156 517.609375 359.285156 C 518.828125 359.285156 519.632141 358.845062 520.021484 357.964844 C 520.410828 357.084625 520.605469 355.188812 520.605469 352.277344 Z M 488.613281 328.054688 L 469.265625 328.054688 L 469.265625 320.285156 C 469.265625 317.576813 469.045563 315.740234 468.605469 314.775391 C 468.165375 313.810547 467.352875 313.328125 466.167969 313.328125 C 464.983063 313.328125 464.1875 313.751282 463.78125 314.597656 C 463.375 315.444031 463.171875 317.339844 463.171875 320.285156 L 463.171875 352.074219 C 463.171875 354.477875 463.476563 356.280579 464.085938 357.482422 C 464.695313 358.684265 465.592438 359.285156 466.777344 359.285156 C 468.165375 359.285156 469.104828 358.658875 469.595703 357.40625 C 470.086578 356.153625 470.332031 353.783875 470.332031 350.296875 L 470.332031 342.273438 L 488.613281 342.273438 C 488.579407 347.656281 488.384766 351.693359 488.029297 354.384766 C 487.673828 357.076172 486.539734 359.835266 484.626953 362.662109 C 482.714172 365.488953 480.217468 367.621735 477.136719 369.060547 C 474.055969 370.499359 470.247406 371.21875 465.710938 371.21875 C 459.921844 371.21875 455.334656 370.228516 451.949219 368.248047 C 448.563782 366.267578 446.16864 363.491547 444.763672 359.919922 C 443.358704 356.348297 442.65625 351.278687 442.65625 344.710938 L 442.65625 325.566406 C 442.65625 319.845032 443.23175 315.528656 444.382813 312.617188 C 445.533875 309.705719 447.988251 307.107422 451.746094 304.822266 C 455.503937 302.537109 460.074188 301.394531 465.457031 301.394531 C 470.80603 301.394531 475.376282 302.528625 479.167969 304.796875 C 482.959656 307.065125 485.48175 309.925781 486.734375 313.378906 C 487.987 316.832031 488.613281 321.723938 488.613281 328.054688 Z M 437.171875 328.054688 L 417.824219 328.054688 L 417.824219 320.285156 C 417.824219 317.576813 417.604156 315.740234 417.164063 314.775391 C 416.723969 313.810547 415.911469 313.328125 414.726563 313.328125 C 413.541656 313.328125 412.746094 313.751282 412.339844 314.597656 C 411.933594 315.444031 411.730469 317.339844 411.730469 320.285156 L 411.730469 352.074219 C 411.730469 354.477875 412.035156 356.280579 412.644531 357.482422 C 413.253906 358.684265 414.151031 359.285156 415.335938 359.285156 C 416.723969 359.285156 417.663422 358.658875 418.154297 357.40625 C 418.645172 356.153625 418.890625 353.783875 418.890625 350.296875 L 418.890625 342.273438 L 437.171875 342.273438 C 437.138031 347.656281 436.943359 351.693359 436.587891 354.384766 C 436.232422 357.076172 435.098328 359.835266 433.185547 362.662109 C 431.272766 365.488953 428.776062 367.621735 425.695313 369.060547 C 422.614563 370.499359 418.806 371.21875 414.269531 371.21875 C 408.480438 371.21875 403.89325 370.228516 400.507813 368.248047 C 397.122375 366.267578 394.727234 363.491547 393.322266 359.919922 C 391.917297 356.348297 391.214844 351.278687 391.214844 344.710938 L 391.214844 325.566406 C 391.214844 319.845032 391.790344 315.528656 392.941406 312.617188 C 394.092468 309.705719 396.546844 307.107422 400.304688 304.822266 C 404.062531 302.537109 408.632782 301.394531 414.015625 301.394531 C 419.364624 301.394531 423.934875 302.528625 427.726563 304.796875 C 431.51825 307.065125 434.040344 309.925781 435.292969 313.378906 C 436.545593 316.832031 437.171875 321.723938 437.171875 328.054688 Z M 385.070313 326.277344 L 385.070313 342.78125 C 385.070313 348.841187 384.765625 353.284485 384.15625 356.111328 C 383.546875 358.938171 382.2435 361.578766 380.246094 364.033203 C 378.248688 366.48764 375.684265 368.298828 372.552734 369.466797 C 369.421204 370.634766 365.824249 371.21875 361.761719 371.21875 C 357.22525 371.21875 353.382843 370.719421 350.234375 369.720703 C 347.085907 368.721985 344.639984 367.215515 342.896484 365.201172 C 341.152985 363.186829 339.908844 360.749359 339.164063 357.888672 C 338.419281 355.027985 338.046875 350.737 338.046875 345.015625 L 338.046875 327.75 C 338.046875 321.486938 338.723938 316.595062 340.078125 313.074219 C 341.432312 309.553375 343.869781 306.726563 347.390625 304.59375 C 350.911469 302.460938 355.414032 301.394531 360.898438 301.394531 C 365.502625 301.394531 369.455048 302.080078 372.755859 303.451172 C 376.056671 304.822266 378.604156 306.608063 380.398438 308.808594 C 382.192719 311.009125 383.419922 313.277344 384.080078 315.613281 C 384.740234 317.949219 385.070313 321.503876 385.070313 326.277344 Z M 364.554688 321.199219 C 364.554688 317.746094 364.3685 315.570984 363.996094 314.673828 C 363.623688 313.776672 362.828125 313.328125 361.609375 313.328125 C 360.390625 313.328125 359.578125 313.776672 359.171875 314.673828 C 358.765625 315.570984 358.5625 317.746094 358.5625 321.199219 L 358.5625 351.617188 C 358.5625 354.7995 358.765625 356.873047 359.171875 357.837891 C 359.578125 358.802734 360.373688 359.285156 361.558594 359.285156 C 362.777344 359.285156 363.58139 358.845062 363.970703 357.964844 C 364.360016 357.084625 364.554688 355.188812 364.554688 352.277344 Z M 305.546875 302.613281 L 305.191406 308.554688 C 307.019531 306.151031 309.033844 304.356781 311.234375 303.171875 C 313.434906 301.986969 315.838531 301.394531 318.445313 301.394531 C 321.627625 301.394531 324.378235 302.249329 326.697266 303.958984 C 329.016296 305.66864 330.463531 307.640625 331.039063 309.875 C 331.614594 312.109375 331.902344 315.901001 331.902344 321.25 L 331.902344 349.636719 C 331.902344 355.764343 331.538422 360.123047 330.810547 362.712891 C 330.082672 365.302734 328.593109 367.367828 326.341797 368.908203 C 324.090485 370.448578 321.373718 371.21875 318.191406 371.21875 C 315.652344 371.21875 313.2995 370.626312 311.132813 369.441406 C 308.966125 368.2565 306.985687 366.496094 305.191406 364.160156 L 305.191406 379.597656 L 284.675781 379.597656 L 284.675781 302.613281 Z M 311.386719 322.214844 C 311.386719 318.050751 311.234375 315.528656 310.929688 314.648438 C 310.625 313.768219 309.778656 313.328125 308.390625 313.328125 C 307.036438 313.328125 306.164703 313.835938 305.775391 314.851563 C 305.386078 315.867188 305.191406 318.321594 305.191406 322.214844 L 305.191406 350.144531 C 305.191406 354.207062 305.394531 356.746094 305.800781 357.761719 C 306.207031 358.777344 307.087219 359.285156 308.441406 359.285156 C 309.761719 359.285156 310.582672 358.819672 310.904297 357.888672 C 311.225922 356.957672 311.386719 354.697937 311.386719 351.109375 Z M 251.769531 302.613281 L 251.769531 328.816406 C 256.069031 328.816406 258.21875 326.531281 258.21875 321.960938 L 258.21875 310.535156 C 258.21875 305.930969 258.980469 303.290375 260.503906 302.613281 L 280.257813 302.613281 C 278.734375 304.813812 277.972656 308.063782 277.972656 312.363281 L 277.972656 321.757813 C 277.972656 325.041687 276.635437 327.766907 273.960938 329.933594 C 272.979156 330.746094 270.914093 331.897125 267.765625 333.386719 C 265.734375 334.3685 263.449219 334.893219 260.910156 334.960938 C 262.095062 335.164063 264.312469 335.722656 267.5625 336.636719 C 274.570343 338.871094 278.074219 342.781219 278.074219 348.367188 L 278.074219 360.199219 C 278.074219 364.532562 278.835938 367.799469 280.359375 370 L 260.605469 370 C 259.082031 367.934875 258.320313 365.294281 258.320313 362.078125 L 258.320313 347.859375 C 258.320313 343.289032 256.136749 341.003906 251.769531 341.003906 L 251.769531 370 L 231.507813 370 L 231.507813 302.613281 Z M 205.863281 370 L 187.988281 370 L 187.988281 333.589844 L 173.71875 370 L 155.03125 370 L 155.03125 302.613281 L 172.90625 302.613281 L 172.90625 338.71875 L 186.921875 302.613281 L 205.863281 302.613281 Z M 148.277344 326.277344 L 148.277344 342.78125 C 148.277344 348.841187 147.972656 353.284485 147.363281 356.111328 C 146.753906 358.938171 145.450531 361.578766 143.453125 364.033203 C 141.455719 366.48764 138.891296 368.298828 135.759766 369.466797 C 132.628235 370.634766 129.031265 371.21875 124.96875 371.21875 C 120.432266 371.21875 116.589859 370.719421 113.441406 369.720703 C 110.292953 368.721985 107.847015 367.215515 106.103516 365.201172 C 104.360016 363.186829 103.115891 360.749359 102.371094 357.888672 C 101.626297 355.027985 101.253906 350.737 101.253906 345.015625 L 101.253906 327.75 C 101.253906 321.486938 101.930984 316.595062 103.285156 313.074219 C 104.639328 309.553375 107.076813 306.726563 110.597656 304.59375 C 114.1185 302.460938 118.621063 301.394531 124.105469 301.394531 C 128.709656 301.394531 132.662094 302.080078 135.962891 303.451172 C 139.263687 304.822266 141.811188 306.608063 143.605469 308.808594 C 145.39975 311.009125 146.626953 313.277344 147.287109 315.613281 C 147.947266 317.949219 148.277344 321.503876 148.277344 326.277344 Z M 127.761719 321.199219 C 127.761719 317.746094 127.575516 315.570984 127.203125 314.673828 C 126.830734 313.776672 126.035156 313.328125 124.816406 313.328125 C 123.597656 313.328125 122.785156 313.776672 122.378906 314.673828 C 121.972656 315.570984 121.769531 317.746094 121.769531 321.199219 L 121.769531 351.617188 C 121.769531 354.7995 121.972656 356.873047 122.378906 357.837891 C 122.785156 358.802734 123.580719 359.285156 124.765625 359.285156 C 125.984375 359.285156 126.788406 358.845062 127.177734 357.964844 C 127.567062 357.084625 127.761719 355.188812 127.761719 352.277344 Z M 95.921875 352.226563 C 95.921875 359.098999 94.423843 363.779297 91.427734 366.267578 C 88.431625 368.755859 81.923225 370 71.902344 370 L 48.390625 370 L 48.390625 302.613281 L 72.613281 302.613281 C 80.907593 302.613281 86.62043 303.984375 89.751953 306.726563 C 92.883484 309.46875 94.449219 314.157532 94.449219 320.792969 C 94.449219 328.410187 90.488327 332.743469 82.566406 333.792969 C 86.696632 334.470062 89.955063 336.086578 92.341797 338.642578 C 94.728531 341.198578 95.921875 344.406219 95.921875 348.265625 Z M 68.753906 327.648438 C 71.868507 327.648438 73.772781 327.259125 74.466797 326.480469 C 75.160812 325.701813 75.507813 324.161469 75.507813 321.859375 C 75.507813 319.929688 75.118492 318.592468 74.339844 317.847656 C 73.561195 317.102844 71.699234 316.730469 68.753906 316.730469 Z M 75.507813 349.078125 L 75.507813 346.792969 C 75.507813 343.8815 75.118492 342.061859 74.339844 341.333984 C 73.561195 340.60611 71.699234 340.242188 68.753906 340.242188 L 68.753906 355.832031 C 71.496109 355.832031 73.307289 355.434265 74.1875 354.638672 C 75.067711 353.843079 75.507813 351.989594 75.507813 349.078125 Z M 44.277344 302.613281 L 44.277344 316.730469 L 32.546875 316.730469 L 32.546875 370 L 12.082031 370 L 12.082031 316.730469 L 0.300781 316.730469 L 0.300781 302.613281 Z"/>
            </g>
        </g>
    </g>
</svg>
